<svg width="256" height="256" viewBox="0 0 256 256" fill="none" xmlns="http://www.w3.org/2000/svg">
<path d="M197.718 232.214L114.347 255.81C114.165 255.861 114.032 255.638 114.165 255.502L171.899 196.852L200.29 219.301C205.022 223.043 203.523 230.571 197.718 232.214Z" fill="#02791D"/>
<path d="M18.298 160.623L113.544 255.868C113.616 255.941 113.734 255.941 113.806 255.868L237.015 131.048C247.008 120.924 246.956 104.631 236.896 94.5713L160.623 18.298C150.517 8.19229 134.133 8.19229 124.027 18.298L18.298 124.027C8.19229 134.133 8.1923 150.517 18.298 160.623Z" fill="url(#paint0_linear_1_79)"/>
<g clip-path="url(#clip0_1_79)">
<path d="M133.391 102.277L127.538 96.4235C119.344 88.2291 106.466 88.2291 98.272 96.4235C90.0776 104.618 90.0776 117.495 98.272 125.689L104.125 131.543C99.15 136.518 99.15 144.127 104.125 149.102L124.611 169.588C129.587 174.564 137.196 174.564 142.171 169.588L171.437 140.322C176.412 135.347 176.412 127.738 171.437 122.763L150.951 102.277C145.976 97.3015 138.366 97.3015 133.391 102.277ZM104.125 119.836C99.15 114.861 99.15 107.252 104.125 102.277C109.1 97.3015 116.71 97.3015 121.685 102.277L127.538 108.13L109.978 125.689L104.125 119.836Z" fill="white"/>
</g>
<defs>
<linearGradient id="paint0_linear_1_79" x1="44.361" y1="213.487" x2="255.076" y2="-17.5596" gradientUnits="userSpaceOnUse">
<stop stop-color="#ADDF45"/>
<stop offset="1" stop-color="#119333"/>
</linearGradient>
<clipPath id="clip0_1_79">
<rect width="99.332" height="99.332" fill="white" transform="translate(57.2996 125.69) rotate(-45)"/>
</clipPath>
</defs>
</svg>
